<svg xmlns="http://www.w3.org/2000/svg" width="28" height="77" viewBox="0 0 28 77" fill="none"><path d="M15.6855 48.181C15.6855 47.2184 15.727 46.3173 15.6745 45.4222C15.611 44.3392 15.9237 43.4694 16.7519 42.7128C17.3859 42.1333 17.7976 41.3503 18.2569 40.6202C18.8579 39.6661 18.7736 38.7168 18.2202 37.8048C17.3554 36.3784 16.0849 35.3424 14.5751 34.6846C11.625 33.4004 8.69943 32.0885 6.07797 30.2091C4.36047 28.9779 2.80909 27.578 1.77322 25.7156C0.287808 23.0447 0.35988 20.3931 1.97355 17.7934C3.80955 14.8382 6.54216 13.507 7.47176 13.1022C7.5927 13.0492 7.71485 12.9998 7.71485 12.9998C7.96161 12.8987 8.18637 12.8155 8.38182 12.7493C8.3464 13.6612 8.45389 14.3865 8.46977 14.8961C8.48443 15.3767 8.61392 15.9104 8.44901 16.326C8.28043 16.7501 7.67821 16.8561 7.27876 17.1224C5.50018 18.3114 4.32138 19.8691 4.03798 22.0231C3.96591 22.5676 4.11982 23.0351 4.34337 23.4977C4.87963 24.6084 5.71883 25.4782 6.65455 26.2649C8.64201 27.9382 10.9129 29.1707 13.2082 30.3681C14.7571 31.1753 16.383 31.8439 17.8147 32.8643C18.6832 33.4835 19.5077 34.1485 20.2077 34.9545C22.2721 37.3314 22.4871 40.0829 20.8099 42.7477C19.6775 44.5464 18.1396 45.9884 16.5723 47.4027C16.2926 47.6545 16.0055 47.9003 15.6855 48.1798V48.181Z" fill="#205A51"></path><path d="M9.51678 49.5253C9.56564 50.9685 9.61206 52.4118 9.66703 53.8538C9.67314 54.0225 9.58763 54.1333 9.50334 54.2586C8.82905 55.2609 8.88524 56.2379 9.66703 57.1619C10.1532 57.7366 10.7799 58.1414 11.4041 58.5486C13.1033 59.6557 14.7047 60.8785 16.0435 62.4072C17.2199 63.7517 18.1593 65.2335 18.3364 67.0369C18.6345 70.0668 17.5033 72.0268 14.7695 73.24C14.9393 72.181 14.5471 71.1354 15.1921 70.1607C15.8603 69.15 15.8188 68.0513 15.3998 66.955C14.866 65.5612 13.8496 64.5215 12.7637 63.5385C11.6802 62.5578 10.4757 61.7374 9.24682 60.9483C8.52732 60.4869 7.86891 59.9532 7.29233 59.3244C5.89488 57.7992 5.51986 56.0608 6.09521 54.0875C6.56184 52.4901 7.63803 51.3107 8.73987 50.1373C8.95487 49.9084 9.16497 49.6747 9.3763 49.4434C9.42394 49.4711 9.47036 49.4988 9.518 49.5253H9.51678Z" fill="#205A51"></path><path d="M16.7263 11.3338C16.7215 11.1013 16.8045 11.023 17.0439 11.0206C21.8764 10.9531 26.5916 13.5517 27.6617 19.2511C27.6947 19.427 27.7093 19.6101 27.7106 19.7896C27.7118 20.5607 27.3905 20.9124 26.6075 21.0076C22.8439 21.463 20.1626 19.7884 18.9349 16.2117C18.8518 15.9695 18.7749 15.7262 18.6943 15.4828C18.4536 14.7528 18.2142 14.5733 17.4397 14.5431C17.3029 14.5383 17.1624 14.5275 17.0281 14.5455C16.7337 14.5841 16.5688 14.4986 16.6152 14.1902C16.6323 14.0721 16.675 13.9697 16.675 13.8492C16.675 13.5035 16.7215 13.1059 16.7215 12.7602C16.7483 12.7602 16.7373 11.8169 16.7263 11.335V11.3338Z" fill="#205A51"></path><path d="M10.3194 73.8533C10.431 74.7423 10.0931 75.3495 9.30556 75.6748C8.25624 76.1121 7.21059 76.5578 6.16494 77C6.10997 76.1747 8.64225 74.5496 10.3194 73.8533Z" fill="#205A51"></path><path d="M8.12128 12.8275C8.12128 12.8275 11.7053 11.4083 14.6676 11.1168C17.5162 10.8361 18.6327 11.1517 18.6327 11.1517L17.6115 14.555C17.6225 14.2635 10.5742 15.5923 9.24511 16.1802C8.87253 16.3645 7.85742 16.8283 7.85742 16.8283L8.12006 12.8275H8.12128Z" fill="#205A51"></path><path d="M8.85742 50.0098L9.52195 49.287C11.8148 47.2185 14.1064 45.15 16.3993 43.0815L18.0179 46.0644C16.6094 47.3173 15.1802 48.628 13.7351 50.0002C12.3132 51.3507 10.9499 52.6879 9.64655 54.0071C9.38391 53.3168 9.12128 52.6277 8.85742 51.9374V50.0098Z" fill="#205A51"></path><path d="M10.0875 73.9533C10.0875 73.9533 13.9525 71.8848 14.573 71.0235C15.1936 70.1621 15.3658 69.8682 15.3658 69.8682L16.2099 72.1607L14.821 73.2173L9.93113 75.399L9.60742 74.7195L10.107 74.0015L10.0863 73.9533H10.0875Z" fill="#205A51"></path><path d="M14.6348 28.5161C13.6611 28.0611 12.7627 27.5922 11.8829 27.0894C11.717 26.9948 11.7334 26.8555 11.729 26.712C11.6449 23.9904 11.5631 21.2688 11.4779 18.5462C11.3742 15.2271 11.264 11.9081 11.1668 8.58901C11.1592 8.33599 11.0795 8.18715 10.8525 8.05001C9.10486 6.99646 8.32002 4.99036 8.89965 3.1097C9.48036 1.22586 11.3131 -0.0530693 13.3543 0.00221275C15.2875 0.0543055 17.0155 1.35131 17.5351 3.1416C18.0787 5.01268 17.3386 6.95713 15.6532 8.00111C15.3727 8.1744 15.2722 8.35619 15.2635 8.66662C15.1533 12.5831 15.0321 16.4997 14.9109 20.4173C14.8291 23.0463 14.7439 25.6744 14.6588 28.3035C14.6566 28.3545 14.6468 28.4055 14.6337 28.5171L14.6348 28.5161Z" fill="#C39854"></path><path d="M12.8164 61.3333C13.3022 61.7861 13.6154 62.1689 13.5783 62.8408C13.4561 65.0552 13.4113 67.275 13.3611 69.4927C13.3338 70.661 13.3567 71.8294 13.3567 72.9978C13.3011 72.9978 13.2465 72.9978 13.1908 72.9988C13.0675 69.1408 12.9441 65.2827 12.8175 61.3333H12.8164Z" fill="#C39854"></path><path d="M11.7305 26.7119L12.8668 62.8409L13.5425 63.5734L14.1325 44.9806L14.7225 26.3877L11.7305 26.7119Z" fill="#C39854"></path><path d="M13.6562 60.1559L12.7461 59.4684L12.8711 63.6207L13.5547 64.2809L13.6562 60.1559Z" fill="#205A51"></path><path d="M14.6738 31.0981L11.7129 29.5825L11.8965 33.481L14.5059 34.6489L14.6738 31.0981Z" fill="#205A51"></path></svg>